<svg width="126" height="126" viewBox="0 0 126 126" fill="none" xmlns="http://www.w3.org/2000/svg">
<path d="M0.0629883 66.4811C0.0629883 65.0581 0.301206 63.7305 0.777641 62.4981C1.25408 61.2657 1.92108 60.1922 2.77867 59.2774C3.63625 58.3626 4.66218 57.6448 5.85646 57.1239C7.05072 56.603 8.35932 56.3425 9.78229 56.3425C10.8622 56.3425 11.8437 56.5014 12.7267 56.819C13.6097 57.1366 14.4641 57.6575 15.2899 58.3817V56.7237H20.1305V76.2385H15.2899V74.5805C14.4641 75.3047 13.6097 75.8256 12.7267 76.1432C11.8437 76.4609 10.8622 76.6197 9.78229 76.6197C8.35932 76.6197 7.05072 76.3592 5.85646 75.8383C4.66218 75.3174 3.63625 74.5996 2.77867 73.6848C1.92108 72.7701 1.25408 71.6965 0.777641 70.4641C0.301206 69.2317 0.0629883 67.9041 0.0629883 66.4811ZM10.4112 72.0649C10.7923 72.0649 11.1925 72.0237 11.6118 71.9411C12.0311 71.8585 12.4535 71.7187 12.8791 71.5218C13.3047 71.3249 13.7208 71.0612 14.1274 70.7309C14.5339 70.4006 14.9214 69.994 15.2899 69.5112V63.451C14.9214 62.9682 14.5339 62.5648 14.1274 62.2408C13.7208 61.9169 13.3047 61.6532 12.8791 61.4499C12.4535 61.2467 12.0311 61.1037 11.6118 61.0211C11.1925 60.9386 10.7923 60.8973 10.4112 60.8973C9.66159 60.8973 8.95963 61.037 8.30533 61.3165C7.65102 61.5961 7.08248 61.9867 6.5997 62.4886C6.1169 62.9904 5.73893 63.5812 5.46578 64.2609C5.19261 64.9406 5.05604 65.6807 5.05604 66.4811C5.05604 67.2815 5.19261 68.0216 5.46578 68.7013C5.73893 69.381 6.1169 69.9718 6.5997 70.4736C7.08248 70.9755 7.65102 71.3662 8.30533 71.6457C8.95963 71.9252 9.66159 72.0649 10.4112 72.0649Z" fill="#77C159"/>
<path d="M32.231 61.16C29.9373 61.1768 27.9448 62.7751 27.9448 65.1471V76.2385H23.1042V65.2805C23.1313 60.7111 27.0884 56.4041 32.1617 56.3425H32.2969C37.3702 56.4041 41.3273 60.7111 41.3543 65.2805V76.2385H36.5137V65.1471C36.5137 62.7751 34.5213 61.1768 32.2275 61.16" fill="#77C159"/>
<path d="M43.6458 66.4811C43.6458 65.0582 43.884 63.7305 44.3604 62.4981C44.8368 61.2657 45.5038 60.1922 46.3614 59.2774C47.219 58.3626 48.2449 57.6448 49.4392 57.1239C50.6335 56.603 51.9421 56.3426 53.3651 56.3425C54.445 56.3426 55.4296 56.5014 56.319 56.819C57.2083 57.1366 58.0595 57.6512 58.8727 58.3626V50.873H63.7132V76.2385H58.8727V74.5996C58.0595 75.3238 57.2083 75.8415 56.319 76.1528C55.4296 76.464 54.445 76.6197 53.3651 76.6197C51.9421 76.6197 50.6335 76.3592 49.4392 75.8383C48.2449 75.3174 47.219 74.5996 46.3614 73.6848C45.5038 72.7701 44.8368 71.6965 44.3604 70.4641C43.884 69.2317 43.6458 67.9041 43.6458 66.4811ZM53.994 72.0649C54.3751 72.065 54.7753 72.0237 55.1946 71.9411C55.6138 71.8585 56.0363 71.7187 56.4619 71.5218C56.8875 71.3249 57.3036 71.0613 57.7102 70.7309C58.1167 70.4006 58.5042 69.994 58.8727 69.5112V63.451C58.5042 62.9682 58.1167 62.5648 57.7102 62.2408C57.3036 61.9169 56.8875 61.6532 56.4619 61.4499C56.0363 61.2467 55.6138 61.1037 55.1946 61.0211C54.7753 60.9386 54.3751 60.8973 53.994 60.8973C53.2443 60.8973 52.5424 61.037 51.8881 61.3165C51.2338 61.5961 50.6652 61.9867 50.1825 62.4886C49.6997 62.9904 49.3217 63.5812 49.0485 64.2609C48.7754 64.9406 48.6388 65.6807 48.6388 66.4811C48.6388 67.2815 48.7754 68.0216 49.0485 68.7013C49.3217 69.381 49.6997 69.9718 50.1825 70.4736C50.6652 70.9755 51.2338 71.3662 51.8881 71.6457C52.5424 71.9252 53.2443 72.065 53.994 72.0649Z" fill="#77C159"/>
<path d="M86.3817 72.0649C87.1059 72.0649 87.7888 71.9284 88.4304 71.6552C89.072 71.382 89.631 70.9977 90.1074 70.5022C90.5839 70.0067 90.9587 69.4191 91.2318 68.7394C91.505 68.0597 91.6416 67.3069 91.6416 66.4811C91.6416 65.668 91.5018 64.9216 91.2223 64.2418C90.9428 63.5621 90.5616 62.9745 90.0789 62.479C89.5961 61.9836 89.037 61.5961 88.4018 61.3165C87.7665 61.037 87.0932 60.8973 86.3817 60.8973C85.6575 60.8973 84.9746 61.037 84.333 61.3165C83.6914 61.5961 83.1324 61.9836 82.656 62.479C82.1795 62.9745 81.8016 63.5621 81.5221 64.2418C81.2425 64.9216 81.1028 65.668 81.1028 66.4811C81.1028 67.3069 81.2394 68.0597 81.5125 68.7394C81.7857 69.4191 82.1605 70.0067 82.6369 70.5022C83.1133 70.9977 83.6724 71.382 84.314 71.6552C84.9556 71.9284 85.6448 72.0649 86.3817 72.0649ZM86.3817 76.6197C84.9714 76.6197 83.6438 76.3656 82.3987 75.8574C81.1536 75.3492 80.0642 74.6409 79.1303 73.7325C78.1965 72.8241 77.4596 71.7505 76.9197 70.5118C76.3797 69.273 76.1097 67.9295 76.1097 66.4811C76.1097 65.0709 76.3797 63.7495 76.9197 62.5172C77.4596 61.2848 78.1934 60.2112 79.1208 59.2964C80.0483 58.3817 81.1377 57.6607 82.3892 57.1334C83.6406 56.6062 84.9714 56.3425 86.3817 56.3425C87.7919 56.3425 89.1196 56.6062 90.3647 57.1334C91.6098 57.6607 92.6961 58.3817 93.6235 59.2964C94.551 60.2112 95.2847 61.2848 95.8247 62.5172C96.3646 63.7495 96.6346 65.0709 96.6346 66.4811C96.6346 67.9295 96.3646 69.273 95.8247 70.5118C95.2847 71.7505 94.5478 72.8241 93.614 73.7325C92.6802 74.6409 91.5939 75.3492 90.3552 75.8574C89.1164 76.3656 87.7919 76.6197 86.3817 76.6197Z" fill="#77C159"/>
<path d="M101.224 55.1956C100.832 55.1956 100.461 55.119 100.112 54.9658C99.7622 54.8126 99.4559 54.6043 99.1924 54.3407C98.9289 54.0773 98.7205 53.7709 98.5673 53.4216C98.4141 53.0723 98.3375 52.7016 98.3375 52.3094C98.3375 51.9172 98.4141 51.5434 98.5673 51.188C98.7205 50.8326 98.9289 50.5231 99.1924 50.2596C99.4559 49.9961 99.7622 49.7878 100.112 49.6346C100.461 49.4814 100.832 49.4048 101.224 49.4048C101.616 49.4048 101.99 49.4814 102.345 49.6346C102.701 49.7878 103.01 49.9961 103.273 50.2596C103.537 50.5231 103.745 50.8326 103.899 51.188C104.052 51.5434 104.128 51.9172 104.128 52.3094C104.128 52.7016 104.052 53.0723 103.899 53.4216C103.745 53.7709 103.537 54.0773 103.273 54.3407C103.01 54.6043 102.701 54.8126 102.345 54.9658C101.99 55.119 101.616 55.1956 101.224 55.1956Z" fill="#77C159"/>
<path d="M98.8031 56.7236H103.644V76.2385H98.8031V56.7236Z" fill="#77C159"/>
<path d="M105.87 66.4811C105.87 65.0582 106.108 63.7305 106.584 62.4981C107.061 61.2657 107.728 60.1922 108.585 59.2774C109.443 58.3626 110.469 57.6448 111.663 57.1239C112.857 56.603 114.166 56.3426 115.589 56.3425C116.669 56.3426 117.653 56.5014 118.543 56.819C119.432 57.1366 120.283 57.6512 121.096 58.3626V50.873H125.937V76.2385H121.096V74.5996C120.283 75.3238 119.432 75.8415 118.543 76.1528C117.653 76.464 116.669 76.6197 115.589 76.6197C114.166 76.6197 112.857 76.3592 111.663 75.8383C110.469 75.3174 109.443 74.5996 108.585 73.6848C107.728 72.7701 107.061 71.6965 106.584 70.4641C106.108 69.2317 105.87 67.9041 105.87 66.4811ZM116.218 72.0649C116.599 72.065 116.999 72.0237 117.418 71.9411C117.838 71.8585 118.26 71.7187 118.686 71.5218C119.111 71.3249 119.527 71.0613 119.934 70.7309C120.34 70.4006 120.728 69.994 121.096 69.5112V63.451C120.728 62.9682 120.34 62.5648 119.934 62.2408C119.527 61.9169 119.111 61.6532 118.686 61.4499C118.26 61.2467 117.838 61.1037 117.418 61.0211C116.999 60.9386 116.599 60.8973 116.218 60.8973C115.468 60.8973 114.766 61.037 114.112 61.3165C113.458 61.5961 112.889 61.9867 112.406 62.4886C111.923 62.9904 111.545 63.5812 111.272 64.2609C110.999 64.9406 110.863 65.6807 110.863 66.4811C110.863 67.2815 110.999 68.0216 111.272 68.7013C111.545 69.381 111.923 69.9718 112.406 70.4736C112.889 70.9755 113.458 71.3662 114.112 71.6457C114.766 71.9252 115.468 72.065 116.218 72.0649Z" fill="#77C159"/>
<path d="M75.6485 61.1015C72.4045 61.1015 70.974 62.7751 70.974 65.147V76.2385H66.1334V65.2804C66.1605 60.711 68.7999 56.2189 75.6485 56.2189" fill="#77C159"/>
</svg>
