<svg width="126" height="126" viewBox="0 0 126 126" fill="none" xmlns="http://www.w3.org/2000/svg">
<g clip-path="url(#clip0_448_25)">
<path d="M13.6852 65.6921V65.6026V51.9362H16.6825V66.7433C16.8217 67.9367 16.7192 69.1458 16.381 70.2987C16.0429 71.4515 15.476 72.5245 14.7141 73.4535C13.2983 74.6748 11.4841 75.3352 9.61441 75.31L9.30127 73.0733C10.5072 73.0739 11.6707 72.6277 12.5669 71.8207C13.3721 70.8813 13.6852 69.6063 13.6852 65.6921ZM36.0376 63.9278C36.0376 65.6053 36.0376 67.104 36.1718 68.4012H33.5101L33.3312 65.7395C32.7744 66.6813 31.9783 67.4589 31.0236 67.9932C30.0689 68.5275 28.9898 68.7995 27.8959 68.7815C25.3013 68.7815 22.2147 67.3724 22.2147 61.624V52.0732H25.2119V61.0201C25.2119 64.1291 26.1737 66.2093 28.8801 66.2093C29.4369 66.2153 29.9893 66.11 30.5049 65.8997C31.0205 65.6893 31.4889 65.3782 31.8827 64.9844C32.2764 64.5907 32.5876 64.1223 32.7979 63.6067C33.0082 63.0911 33.1135 62.5387 33.1075 61.9819V51.9613H36.1047V63.8383L36.0376 63.9278ZM41.719 57.3946C41.719 55.3145 41.719 53.6145 41.5847 52.0712H44.2688L44.403 54.8671C45.001 53.857 45.8619 53.0281 46.8939 52.4687C47.926 51.9094 49.0904 51.6406 50.2632 51.691C54.2446 51.691 57.2418 55.0237 57.2418 59.9892C57.2418 65.8494 53.6407 68.7572 49.7488 68.7572C48.7527 68.8016 47.7619 68.5882 46.8724 68.1376C45.9829 67.687 45.2248 67.0144 44.6714 66.1849V75.1318H41.719V57.4617V57.3946ZM44.6714 61.7562C44.6795 62.1621 44.7245 62.5663 44.8056 62.9641C45.0594 63.9572 45.6371 64.8374 46.4473 65.4653C47.2575 66.0932 48.254 66.433 49.2791 66.431C52.4328 66.431 54.2893 63.8587 54.2893 60.1234C54.2893 56.8578 52.5447 54.0619 49.3909 54.0619C48.1428 54.1641 46.9749 54.718 46.1061 55.6198C45.2372 56.5216 44.7271 57.7093 44.6714 58.9603V61.7562ZM62.5819 52.0563L66.1831 61.6966C66.5633 62.7702 66.9659 64.0675 67.2343 65.0293C67.5475 64.0452 67.8829 62.7926 68.2856 61.6295L71.5512 52.0563H74.705L70.2315 63.6873C67.9948 69.2791 66.6304 72.1645 64.5726 73.9091C63.5361 74.8558 62.2725 75.5184 60.9044 75.8327L60.1663 73.3275C61.1229 73.0132 62.011 72.5199 62.7832 71.8737C63.8744 70.9844 64.7404 69.8503 65.3107 68.5633C65.4328 68.3405 65.516 68.0984 65.5568 67.8476C65.5313 67.5776 65.4634 67.3135 65.3555 67.0647L59.2716 52.0116H62.5372L62.5819 52.0563ZM82.6617 47.3638V52.0609H86.9562V54.2976H82.6617V63.1103C82.6617 65.1234 83.2433 66.2864 84.8984 66.2864C85.4863 66.2961 86.0729 66.2284 86.6431 66.0852L86.7773 68.3219C85.9222 68.6181 85.02 68.7546 84.1156 68.7245C83.5166 68.762 82.9167 68.6694 82.3569 68.4532C81.797 68.237 81.2906 67.9022 80.8723 67.4719C79.9613 66.2533 79.5457 64.7348 79.7093 63.2221V54.2752H77.1594V52.0385H79.754V48.0572L82.6617 47.3638ZM92.4775 60.752C92.4168 61.5105 92.5215 62.2732 92.7844 62.9874C93.0473 63.7015 93.4622 64.35 94.0003 64.8881C94.5384 65.4262 95.1869 65.8411 95.901 66.104C96.6151 66.3669 97.3778 66.4716 98.1364 66.4109C99.6707 66.4452 101.195 66.1556 102.61 65.5609L103.124 67.7977C101.388 68.5128 99.5213 68.8557 97.6443 68.8042C96.5501 68.8791 95.4526 68.7164 94.4272 68.3274C93.4017 67.9383 92.4726 67.332 91.7035 66.5502C90.9343 65.7683 90.3434 64.8293 89.9713 63.7976C89.5991 62.7659 89.4545 61.6659 89.5474 60.573C89.5474 55.6523 92.4775 51.7604 97.2641 51.7604C102.632 51.7604 103.974 56.4575 103.974 59.4547C104.003 59.9165 104.003 60.3796 103.974 60.8415H92.4104L92.4775 60.752ZM101.245 58.5153C101.332 57.9173 101.289 57.3077 101.12 56.7277C100.951 56.1477 100.659 55.6106 100.265 55.1528C99.8705 54.695 99.3828 54.327 98.8343 54.0736C98.2858 53.8202 97.6893 53.6873 97.0852 53.6839C95.8562 53.7729 94.7048 54.3176 93.8566 55.2113C93.0084 56.1051 92.5245 57.2833 92.4999 58.5153H101.245ZM108.522 57.1425C108.522 55.2189 108.522 53.5637 108.388 52.0427H111.072V55.2413H111.206C111.488 54.2541 112.07 53.3791 112.871 52.7378C113.673 52.0965 114.654 51.7206 115.679 51.6625C115.962 51.6255 116.247 51.6255 116.529 51.6625V54.4584C116.188 54.4188 115.842 54.4188 115.5 54.4584C114.485 54.4977 113.519 54.9053 112.782 55.6051C112.045 56.3048 111.588 57.2488 111.497 58.2608C111.413 58.7185 111.368 59.1824 111.363 59.6476V68.3485H108.41V57.1648L108.522 57.1425Z" fill="#4E4E4E"/>
<path d="M107.208 7.1241C107.3 8.62675 106.943 10.1227 106.181 11.4214C105.42 12.7202 104.289 13.7629 102.933 14.4167C101.577 15.0706 100.057 15.306 98.5669 15.0929C97.0766 14.8798 95.6834 14.228 94.5649 13.2204C93.4464 12.2128 92.6531 10.895 92.2862 9.43497C91.9192 7.97492 91.9952 6.43868 92.5044 5.02198C93.0136 3.60527 93.9331 2.3722 95.1455 1.47986C96.358 0.587517 97.8087 0.0762961 99.3127 0.0113192C100.299 -0.0429438 101.286 0.0982684 102.217 0.426835C103.149 0.755401 104.006 1.26484 104.74 1.92586C105.473 2.58687 106.069 3.38642 106.493 4.27853C106.917 5.17063 107.16 6.1377 107.208 7.1241Z" fill="#767677"/>
<path d="M62.9802 94.7272C42.8499 94.7272 25.1573 87.5025 16.0092 76.8334C19.5587 86.4315 25.9634 94.7119 34.3612 100.56C42.759 106.408 52.747 109.543 62.9802 109.543C73.2137 109.543 83.2015 106.408 91.5995 100.56C99.9972 94.7119 106.402 86.4315 109.952 76.8334C100.826 87.5025 83.2002 94.7272 62.9802 94.7272Z" fill="#F37726"/>
<path d="M62.9802 25.3488C83.1108 25.3488 100.803 32.5734 109.952 43.2425C106.402 33.6445 99.9972 25.3641 91.5995 19.516C83.2015 13.668 73.2137 10.533 62.9802 10.533C52.747 10.533 42.759 13.668 34.3612 19.516C25.9634 25.3641 19.5587 33.6445 16.0092 43.2425C25.1573 32.5511 42.7605 25.3488 62.9802 25.3488Z" fill="#F37726"/>
<path d="M35.2681 115.49C35.3862 117.382 34.9382 119.267 33.9811 120.904C33.024 122.542 31.6012 123.857 29.894 124.682C28.1868 125.508 26.2725 125.807 24.3949 125.54C22.5173 125.274 20.7615 124.455 19.3511 123.187C17.9408 121.92 16.9397 120.261 16.4756 118.422C16.0114 116.583 16.1051 114.648 16.7447 112.863C17.3844 111.077 18.541 109.523 20.0672 108.398C21.5935 107.272 23.4202 106.626 25.3147 106.543C26.5558 106.476 27.7978 106.655 28.9698 107.069C30.1417 107.483 31.2207 108.123 32.145 108.954C33.0693 109.785 33.8209 110.79 34.3568 111.911C34.8926 113.032 35.2023 114.248 35.2681 115.49Z" fill="#9E9E9E"/>
<path d="M18.297 22.9174C17.2123 22.9473 16.1429 22.6559 15.2234 22.0797C14.3039 21.5036 13.5753 20.6684 13.1292 19.6792C12.6831 18.69 12.5394 17.591 12.7163 16.5204C12.8931 15.4498 13.3825 14.4554 14.123 13.6622C14.8636 12.8691 15.8221 12.3125 16.878 12.0627C17.934 11.8128 19.0402 11.8807 20.0577 12.2579C21.0751 12.6351 21.9583 13.3047 22.5962 14.1825C23.2341 15.0603 23.5982 16.1072 23.6427 17.1914C23.6851 18.6574 23.1475 20.081 22.1467 21.153C21.1458 22.2251 19.7625 22.8591 18.297 22.9174Z" fill="#616262"/>
</g>
<defs>
<clipPath id="clip0_448_25">
<rect width="126" height="126" fill="white"/>
</clipPath>
</defs>
</svg>
