<svg width="126" height="126" viewBox="0 0 126 126" fill="none" xmlns="http://www.w3.org/2000/svg">
<path d="M29.7307 44.8041H53.4954V46.693H31.9091V60.9091H52.2082V62.798H31.9091V78.4059H53.743V80.2947H29.7307V44.8041ZM55.6244 44.8041H58.1494L69.3386 60.4121L80.7754 44.8041L96.3313 24.9785L70.7744 62.0524L83.944 80.2947H81.32L69.3386 63.6927L57.3077 80.2947H54.7332L68.0019 62.0524L55.6244 44.8041ZM84.8847 46.693V44.8041H111.967V46.693H99.4902V80.2947H97.3117V46.693H84.8847ZM0 44.8041H2.72304L40.2722 100.993L24.755 80.2947L2.27746 47.4883L2.17844 80.2947H0V44.8041ZM111.747 77.8359C111.302 77.8359 110.968 77.491 110.968 77.0454C110.968 76.5997 111.302 76.2549 111.747 76.2549C112.198 76.2549 112.526 76.5997 112.526 77.0454C112.526 77.491 112.198 77.8359 111.747 77.8359ZM113.888 75.7562H115.053C115.069 76.3875 115.53 76.8119 116.208 76.8119C116.966 76.8119 117.395 76.3557 117.395 75.5015V70.09H118.582V75.5068C118.582 77.0454 117.692 77.9314 116.219 77.9314C114.836 77.9314 113.888 77.0719 113.888 75.7562ZM120.135 75.6872H121.311C121.412 76.414 122.122 76.8756 123.144 76.8756C124.098 76.8756 124.797 76.3822 124.797 75.7031C124.797 75.1195 124.352 74.7694 123.34 74.5306L122.355 74.2919C120.972 73.9683 120.341 73.2998 120.341 72.1751C120.341 70.8116 121.454 69.9044 123.123 69.9044C124.675 69.9044 125.809 70.8116 125.878 72.1008H124.723C124.612 71.3952 123.997 70.9548 123.107 70.9548C122.169 70.9548 121.544 71.4058 121.544 72.0955C121.544 72.6419 121.947 72.9549 122.943 73.1884L123.785 73.3953C125.354 73.7614 126 74.398 126 75.5493C126 77.0135 124.866 77.9314 123.054 77.9314C121.359 77.9314 120.219 77.056 120.135 75.6872Z" fill="black"/>
</svg>
