<svg width="126" height="126" viewBox="0 0 126 126" fill="none" xmlns="http://www.w3.org/2000/svg">
<path d="M35.4375 53.9438C39.1125 39.2438 48.3 31.8938 63 31.8938C85.05 31.8938 87.8063 48.4313 98.8313 51.1875C106.181 53.025 112.613 50.2688 118.125 42.9188C114.45 57.6188 105.263 64.9688 90.5625 64.9688C68.5125 64.9688 65.7562 48.4313 54.7312 45.675C47.3812 43.8375 40.95 46.5938 35.4375 53.9438ZM7.875 87.0188C11.55 72.3188 20.7375 64.9688 35.4375 64.9688C57.4875 64.9688 60.2438 81.5063 71.2688 84.2625C78.6188 86.1 85.05 83.3438 90.5625 75.9938C86.8875 90.6938 77.7 98.0438 63 98.0438C40.95 98.0438 38.1938 81.5063 27.1688 78.75C19.8188 76.9125 13.3875 79.6688 7.875 87.0188Z" fill="#44A8B3"/>
</svg>
